<?xml version="1.0" encoding="UTF-8" standalone="no"?>
<svg xmlns="http://www.w3.org/2000/svg" width="80mm" height="80mm" viewBox="0 0 80 80">
  <!-- Base dimple profile (Bezier degree 3, mirrored symmetry) -->
  <path d="M 40,0
           C 35,10 30,20 25,30
             20,40 15,50 20,60
             25,70 30,75 40,80
             50,75 55,70 60,60
             65,50 60,40 55,30
             50,20 45,10 40,0 Z"
        fill="none" stroke="purple" stroke-width="0.5"/>
  <!-- Control points (half side, mirrored) -->
  <circle cx="40" cy="0" r="1" fill="orange"/>
  <circle cx="35" cy="10" r="1" fill="orange"/>
  <circle cx="30" cy="20" r="1" fill="orange"/>
  <circle cx="25" cy="30" r="1" fill="orange"/>
  <circle cx="20" cy="40" r="1" fill="orange"/>
  <circle cx="15" cy="50" r="1" fill="orange"/>
  <circle cx="20" cy="60" r="1" fill="orange"/>
  <circle cx="25" cy="70" r="1" fill="orange"/>
  <circle cx="30" cy="75" r="1" fill="orange"/>
  <circle cx="40" cy="80" r="1" fill="orange"/>
</svg>