<?xml version="1.0" encoding="UTF-8" standalone="no"?>
<svg xmlns="http://www.w3.org/2000/svg" width="100mm" height="150mm" viewBox="0 0 100 150">
  <!-- Neck profile curve (B-Spline degree 3, 12 control points) -->
  <path d="M 50,0
           C 52,5 54,15 53,25
             52,35 50,45 48,55
             46,65 45,75 47,85
             49,95 52,105 55,115
             58,125 60,135 62,145
             64,155 65,165 63,175
             61,185 58,195 55,205
             52,215 50,225 48,235
             46,245 45,255 47,265
             49,275 52,285 55,295"
        fill="none" stroke="blue" stroke-width="0.5"/>
  <!-- Control points -->
  <circle cx="50" cy="0" r="1" fill="green"/>
  <circle cx="52" cy="5" r="1" fill="green"/>
  <circle cx="54" cy="15" r="1" fill="green"/>
  <circle cx="53" cy="25" r="1" fill="green"/>
  <circle cx="52" cy="35" r="1" fill="green"/>
  <circle cx="50" cy="45" r="1" fill="green"/>
  <circle cx="48" cy="55" r="1" fill="green"/>
  <circle cx="46" cy="65" r="1" fill="green"/>
  <circle cx="45" cy="75" r="1" fill="green"/>
  <circle cx="47" cy="85" r="1" fill="green"/>
  <circle cx="49" cy="95" r="1" fill="green"/>
  <circle cx="52" cy="105" r="1" fill="green"/>
  <circle cx="55" cy="115" r="1" fill="green"/>
  <circle cx="58" cy="125" r="1" fill="green"/>
  <circle cx="60" cy="135" r="1" fill="green"/>
  <circle cx="62" cy="145" r="1" fill="green"/>
  <circle cx="64" cy="155" r="1" fill="green"/>
  <circle cx="65" cy="165" r="1" fill="green"/>
  <circle cx="63" cy="175" r="1" fill="green"/>
  <circle cx="61" cy="185" r="1" fill="green"/>
  <circle cx="58" cy="195" r="1" fill="green"/>
  <circle cx="55" cy="205" r="1" fill="green"/>
  <circle cx="52" cy="215" r="1" fill="green"/>
  <circle cx="50" cy="225" r="1" fill="green"/>
  <circle cx="48" cy="235" r="1" fill="green"/>
  <circle cx="46" cy="245" r="1" fill="green"/>
  <circle cx="45" cy="255" r="1" fill="green"/>
  <circle cx="47" cy="265" r="1" fill="green"/>
  <circle cx="49" cy="275" r="1" fill="green"/>
  <circle cx="52" cy="285" r="1" fill="green"/>
  <circle cx="55" cy="295" r="1" fill="green"/>
</svg>